<svg width="1046" height="428" viewBox="0 0 1046 428" fill="none" xmlns="http://www.w3.org/2000/svg">
<rect width="1016" height="427.85" rx="7.6391" fill="white"/>
<circle cx="340.207" cy="52.4177" r="6.20677" fill="#3A57E8"/>
<path d="M358.371 58.0911C357.676 58.0911 357.063 57.9157 356.532 57.5648C356 57.2104 355.584 56.7112 355.284 56.0674C354.984 55.4199 354.834 54.6549 354.834 53.7724C354.834 52.8971 354.984 52.1375 355.284 51.4937C355.584 50.8499 356.002 50.3525 356.537 50.0017C357.072 49.6508 357.691 49.4754 358.393 49.4754C358.935 49.4754 359.364 49.5658 359.678 49.7467C359.997 49.9239 360.239 50.1265 360.406 50.3543C360.576 50.5786 360.708 50.7631 360.802 50.9077H360.91V46.8061H362.19V57.9175H360.953V56.6371H360.802C360.708 56.789 360.574 56.9807 360.4 57.2122C360.226 57.44 359.979 57.6444 359.657 57.8252C359.335 58.0025 358.906 58.0911 358.371 58.0911ZM358.545 56.9409C359.058 56.9409 359.492 56.8071 359.847 56.5394C360.201 56.2681 360.471 55.8938 360.655 55.4163C360.84 54.9353 360.932 54.3801 360.932 53.7507C360.932 53.1286 360.841 52.5842 360.661 52.1176C360.48 51.6474 360.212 51.2821 359.858 51.0217C359.503 50.7576 359.065 50.6256 358.545 50.6256C358.002 50.6256 357.55 50.7649 357.188 51.0434C356.83 51.3183 356.561 51.6926 356.38 52.1665C356.203 52.6367 356.114 53.1647 356.114 53.7507C356.114 54.3439 356.204 54.8828 356.385 55.3675C356.57 55.8486 356.841 56.232 357.199 56.5177C357.561 56.7998 358.009 56.9409 358.545 56.9409ZM369.965 54.5103V49.5839H371.246V57.9175H369.965V56.5069H369.878C369.683 56.93 369.379 57.2899 368.967 57.5865C368.555 57.8795 368.034 58.026 367.404 58.026C366.884 58.026 366.421 57.9121 366.015 57.6842C365.61 57.4527 365.292 57.1055 365.061 56.6425C364.829 56.1759 364.713 55.5881 364.713 54.8792V49.5839H365.994V54.7924C365.994 55.4001 366.164 55.8847 366.504 56.2464C366.847 56.6081 367.285 56.789 367.817 56.789C368.135 56.789 368.459 56.7076 368.788 56.5448C369.121 56.3821 369.399 56.1325 369.623 55.7961C369.851 55.4597 369.965 55.0311 369.965 54.5103ZM373.591 57.9175V49.5839H374.828V50.886H374.936C375.11 50.4411 375.39 50.0957 375.777 49.8498C376.164 49.6002 376.629 49.4754 377.172 49.4754C377.721 49.4754 378.179 49.6002 378.544 49.8498C378.913 50.0957 379.201 50.4411 379.407 50.886H379.494C379.707 50.4556 380.027 50.1138 380.454 49.8606C380.881 49.6038 381.393 49.4754 381.989 49.4754C382.735 49.4754 383.344 49.7087 383.818 50.1753C384.292 50.6383 384.529 51.3599 384.529 52.3401V57.9175H383.248V52.3401C383.248 51.7252 383.08 51.2857 382.744 51.0217C382.407 50.7576 382.011 50.6256 381.555 50.6256C380.969 50.6256 380.516 50.8028 380.194 51.1573C379.872 51.5082 379.711 51.9531 379.711 52.492V57.9175H378.409V52.2099C378.409 51.736 378.255 51.3544 377.947 51.0651C377.64 50.7721 377.244 50.6256 376.759 50.6256C376.427 50.6256 376.115 50.7142 375.826 50.8915C375.54 51.0687 375.309 51.3147 375.132 51.6293C374.958 51.9404 374.871 52.3003 374.871 52.709V57.9175H373.591ZM386.87 57.9175V49.5839H388.107V50.886H388.215C388.389 50.4411 388.669 50.0957 389.056 49.8498C389.443 49.6002 389.908 49.4754 390.451 49.4754C391 49.4754 391.458 49.6002 391.823 49.8498C392.192 50.0957 392.48 50.4411 392.686 50.886H392.773C392.986 50.4556 393.306 50.1138 393.733 49.8606C394.16 49.6038 394.672 49.4754 395.268 49.4754C396.013 49.4754 396.623 49.7087 397.097 50.1753C397.571 50.6383 397.808 51.3599 397.808 52.3401V57.9175H396.527V52.3401C396.527 51.7252 396.359 51.2857 396.023 51.0217C395.686 50.7576 395.29 50.6256 394.834 50.6256C394.248 50.6256 393.794 50.8028 393.473 51.1573C393.151 51.5082 392.99 51.9531 392.99 52.492V57.9175H391.688V52.2099C391.688 51.736 391.534 51.3544 391.226 51.0651C390.919 50.7721 390.523 50.6256 390.038 50.6256C389.705 50.6256 389.394 50.7142 389.105 50.8915C388.819 51.0687 388.588 51.3147 388.411 51.6293C388.237 51.9404 388.15 52.3003 388.15 52.709V57.9175H386.87ZM400.675 61.0426C400.458 61.0426 400.264 61.0245 400.094 60.9883C399.924 60.9558 399.807 60.9232 399.742 60.8907L400.067 59.7621C400.378 59.8417 400.653 59.8707 400.892 59.849C401.131 59.8273 401.342 59.7206 401.527 59.5289C401.715 59.3408 401.887 59.0351 402.042 58.6119L402.281 57.9609L399.199 49.5839H400.588L402.888 56.2247H402.975L405.276 49.5839H406.665L403.127 59.1328C402.968 59.5632 402.771 59.9195 402.536 60.2016C402.301 60.4874 402.028 60.699 401.717 60.8364C401.409 60.9738 401.062 61.0426 400.675 61.0426ZM415.798 58.0911C415.104 58.0911 414.491 57.9157 413.959 57.5648C413.428 57.2104 413.012 56.7112 412.711 56.0674C412.411 55.4199 412.261 54.6549 412.261 53.7724C412.261 52.8971 412.411 52.1375 412.711 51.4937C413.012 50.8499 413.429 50.3525 413.965 50.0017C414.5 49.6508 415.118 49.4754 415.82 49.4754C416.363 49.4754 416.791 49.5658 417.106 49.7467C417.424 49.9239 417.667 50.1265 417.833 50.3543C418.003 50.5786 418.135 50.7631 418.229 50.9077H418.338V46.8061H419.618V57.9175H418.381V56.6371H418.229C418.135 56.789 418.001 56.9807 417.828 57.2122C417.654 57.44 417.406 57.6444 417.084 57.8252C416.762 58.0025 416.334 58.0911 415.798 58.0911ZM415.972 56.9409C416.486 56.9409 416.92 56.8071 417.274 56.5394C417.629 56.2681 417.898 55.8938 418.083 55.4163C418.267 54.9353 418.359 54.3801 418.359 53.7507C418.359 53.1286 418.269 52.5842 418.088 52.1176C417.907 51.6474 417.64 51.2821 417.285 51.0217C416.931 50.7576 416.493 50.6256 415.972 50.6256C415.43 50.6256 414.977 50.7649 414.616 51.0434C414.258 51.3183 413.988 51.6926 413.807 52.1665C413.63 52.6367 413.541 53.1647 413.541 53.7507C413.541 54.3439 413.632 54.8828 413.813 55.3675C413.997 55.8486 414.268 56.232 414.627 56.5177C414.988 56.7998 415.437 56.9409 415.972 56.9409ZM424.593 58.1128C424.065 58.1128 423.586 58.0133 423.155 57.8144C422.725 57.6118 422.383 57.3207 422.13 56.9409C421.877 56.5575 421.75 56.0945 421.75 55.552C421.75 55.0745 421.844 54.6875 422.032 54.3909C422.22 54.0907 422.472 53.8556 422.786 53.6856C423.101 53.5156 423.448 53.389 423.828 53.3058C424.212 53.219 424.597 53.1503 424.984 53.0996C425.49 53.0345 425.901 52.9857 426.215 52.9532C426.534 52.917 426.765 52.8573 426.91 52.7741C427.058 52.6909 427.132 52.5462 427.132 52.3401V52.2967C427.132 51.7614 426.986 51.3454 426.693 51.0488C426.403 50.7522 425.964 50.6039 425.374 50.6039C424.763 50.6039 424.284 50.7377 423.937 51.0054C423.589 51.2731 423.345 51.5588 423.204 51.8626L421.989 51.4286C422.206 50.9222 422.495 50.528 422.857 50.2458C423.222 49.9601 423.62 49.7612 424.051 49.649C424.485 49.5333 424.911 49.4754 425.331 49.4754C425.599 49.4754 425.906 49.508 426.253 49.5731C426.604 49.6346 426.942 49.763 427.268 49.9583C427.597 50.1536 427.87 50.4484 428.087 50.8426C428.304 51.2369 428.413 51.765 428.413 52.4269V57.9175H427.132V56.789H427.067C426.98 56.9698 426.836 57.1633 426.633 57.3695C426.431 57.5757 426.161 57.7511 425.825 57.8958C425.488 58.0405 425.078 58.1128 424.593 58.1128ZM424.788 56.9626C425.295 56.9626 425.722 56.8631 426.069 56.6642C426.42 56.4653 426.684 56.2084 426.861 55.8938C427.042 55.5791 427.132 55.2481 427.132 54.9009V53.729C427.078 53.7941 426.959 53.8538 426.774 53.908C426.593 53.9587 426.384 54.0039 426.145 54.0437C425.91 54.0798 425.68 54.1124 425.456 54.1413C425.235 54.1667 425.056 54.1884 424.919 54.2064C424.586 54.2498 424.275 54.3204 423.986 54.418C423.7 54.5121 423.468 54.6549 423.291 54.8466C423.117 55.0347 423.031 55.2915 423.031 55.6171C423.031 56.062 423.195 56.3983 423.524 56.6262C423.857 56.8505 424.279 56.9626 424.788 56.9626ZM434.374 49.5839V50.669H430.055V49.5839H434.374ZM431.314 47.5873H432.594V55.5303C432.594 55.892 432.647 56.1632 432.752 56.3441C432.86 56.5213 432.998 56.6407 433.164 56.7022C433.334 56.76 433.513 56.789 433.701 56.789C433.842 56.789 433.958 56.7817 434.048 56.7673C434.139 56.7492 434.211 56.7347 434.265 56.7239L434.526 57.8741C434.439 57.9066 434.318 57.9392 434.162 57.9717C434.007 58.0079 433.81 58.026 433.571 58.026C433.209 58.026 432.855 57.9482 432.508 57.7927C432.164 57.6372 431.878 57.4002 431.65 57.082C431.426 56.7637 431.314 56.3622 431.314 55.8775V47.5873ZM438.752 58.1128C438.224 58.1128 437.745 58.0133 437.315 57.8144C436.884 57.6118 436.542 57.3207 436.289 56.9409C436.036 56.5575 435.909 56.0945 435.909 55.552C435.909 55.0745 436.003 54.6875 436.192 54.3909C436.38 54.0907 436.631 53.8556 436.946 53.6856C437.26 53.5156 437.608 53.389 437.987 53.3058C438.371 53.219 438.756 53.1503 439.143 53.0996C439.649 53.0345 440.06 52.9857 440.375 52.9532C440.693 52.917 440.924 52.8573 441.069 52.7741C441.217 52.6909 441.291 52.5462 441.291 52.3401V52.2967C441.291 51.7614 441.145 51.3454 440.852 51.0488C440.563 50.7522 440.123 50.6039 439.534 50.6039C438.922 50.6039 438.443 50.7377 438.096 51.0054C437.749 51.2731 437.505 51.5588 437.363 51.8626L436.148 51.4286C436.365 50.9222 436.655 50.528 437.016 50.2458C437.382 49.9601 437.779 49.7612 438.21 49.649C438.644 49.5333 439.071 49.4754 439.49 49.4754C439.758 49.4754 440.065 49.508 440.413 49.5731C440.763 49.6346 441.102 49.763 441.427 49.9583C441.756 50.1536 442.029 50.4484 442.246 50.8426C442.463 51.2369 442.572 51.765 442.572 52.4269V57.9175H441.291V56.789H441.226C441.14 56.9698 440.995 57.1633 440.792 57.3695C440.59 57.5757 440.32 57.7511 439.984 57.8958C439.648 58.0405 439.237 58.1128 438.752 58.1128ZM438.948 56.9626C439.454 56.9626 439.881 56.8631 440.228 56.6642C440.579 56.4653 440.843 56.2084 441.02 55.8938C441.201 55.5791 441.291 55.2481 441.291 54.9009V53.729C441.237 53.7941 441.118 53.8538 440.933 53.908C440.753 53.9587 440.543 54.0039 440.304 54.0437C440.069 54.0798 439.839 54.1124 439.615 54.1413C439.394 54.1667 439.215 54.1884 439.078 54.2064C438.745 54.2498 438.434 54.3204 438.145 54.418C437.859 54.5121 437.627 54.6549 437.45 54.8466C437.277 55.0347 437.19 55.2915 437.19 55.6171C437.19 56.062 437.354 56.3983 437.684 56.6262C438.016 56.8505 438.438 56.9626 438.948 56.9626Z" fill="#8A92A6"/>
<circle cx="473.176" cy="52.4177" r="6.20677" fill="#85F4FA"/>
<path d="M491.797 57.9175H488.368V46.8061H491.949C493.027 46.8061 493.949 47.0285 494.716 47.4734C495.483 47.9147 496.07 48.5495 496.479 49.3778C496.888 50.2024 497.092 51.1899 497.092 52.3401C497.092 53.4975 496.886 54.494 496.474 55.3295C496.061 56.1614 495.461 56.8016 494.672 57.2501C493.884 57.695 492.925 57.9175 491.797 57.9175ZM489.714 56.7239H491.71C492.629 56.7239 493.39 56.5466 493.994 56.1922C494.598 55.8377 495.049 55.3331 495.345 54.6785C495.642 54.0238 495.79 53.2443 495.79 52.3401C495.79 51.4431 495.644 50.6708 495.351 50.0234C495.058 49.3723 494.62 48.8732 494.038 48.5259C493.455 48.1751 492.73 47.9997 491.862 47.9997H489.714V56.7239ZM504.427 54.5103V49.5839H505.708V57.9175H504.427V56.5069H504.341C504.145 56.93 503.841 57.2899 503.429 57.5865C503.017 57.8795 502.496 58.026 501.867 58.026C501.346 58.026 500.883 57.9121 500.478 57.6842C500.073 57.4527 499.754 57.1055 499.523 56.6425C499.291 56.1759 499.176 55.5881 499.176 54.8792V49.5839H500.456V54.7924C500.456 55.4001 500.626 55.8847 500.966 56.2464C501.31 56.6081 501.747 56.789 502.279 56.789C502.597 56.789 502.921 56.7076 503.25 56.5448C503.583 56.3821 503.861 56.1325 504.086 55.7961C504.314 55.4597 504.427 55.0311 504.427 54.5103ZM508.053 57.9175V49.5839H509.29V50.886H509.399C509.572 50.4411 509.852 50.0957 510.24 49.8498C510.627 49.6002 511.091 49.4754 511.634 49.4754C512.184 49.4754 512.641 49.6002 513.007 49.8498C513.375 50.0957 513.663 50.4411 513.869 50.886H513.956C514.169 50.4556 514.489 50.1138 514.916 49.8606C515.343 49.6038 515.855 49.4754 516.452 49.4754C517.197 49.4754 517.806 49.7087 518.28 50.1753C518.754 50.6383 518.991 51.3599 518.991 52.3401V57.9175H517.71V52.3401C517.71 51.7252 517.542 51.2857 517.206 51.0217C516.869 50.7576 516.473 50.6256 516.018 50.6256C515.432 50.6256 514.978 50.8028 514.656 51.1573C514.334 51.5082 514.173 51.9531 514.173 52.492V57.9175H512.871V52.2099C512.871 51.736 512.717 51.3544 512.41 51.0651C512.102 50.7721 511.706 50.6256 511.222 50.6256C510.889 50.6256 510.578 50.7142 510.288 50.8915C510.003 51.0687 509.771 51.3147 509.594 51.6293C509.42 51.9404 509.333 52.3003 509.333 52.709V57.9175H508.053ZM521.332 57.9175V49.5839H522.569V50.886H522.677C522.851 50.4411 523.131 50.0957 523.518 49.8498C523.905 49.6002 524.37 49.4754 524.913 49.4754C525.463 49.4754 525.92 49.6002 526.285 49.8498C526.654 50.0957 526.942 50.4411 527.148 50.886H527.235C527.448 50.4556 527.768 50.1138 528.195 49.8606C528.622 49.6038 529.134 49.4754 529.731 49.4754C530.476 49.4754 531.085 49.7087 531.559 50.1753C532.033 50.6383 532.27 51.3599 532.27 52.3401V57.9175H530.989V52.3401C530.989 51.7252 530.821 51.2857 530.485 51.0217C530.148 50.7576 529.752 50.6256 529.297 50.6256C528.711 50.6256 528.257 50.8028 527.935 51.1573C527.613 51.5082 527.452 51.9531 527.452 52.492V57.9175H526.15V52.2099C526.15 51.736 525.996 51.3544 525.689 51.0651C525.381 50.7721 524.985 50.6256 524.5 50.6256C524.168 50.6256 523.857 50.7142 523.567 50.8915C523.281 51.0687 523.05 51.3147 522.873 51.6293C522.699 51.9404 522.612 52.3003 522.612 52.709V57.9175H521.332ZM535.137 61.0426C534.92 61.0426 534.727 61.0245 534.557 60.9883C534.387 60.9558 534.269 60.9232 534.204 60.8907L534.529 59.7621C534.841 59.8417 535.115 59.8707 535.354 59.849C535.593 59.8273 535.804 59.7206 535.989 59.5289C536.177 59.3408 536.349 59.0351 536.504 58.6119L536.743 57.9609L533.661 49.5839H535.05L537.351 56.2247H537.438L539.738 49.5839H541.127L537.589 59.1328C537.43 59.5632 537.233 59.9195 536.998 60.2016C536.763 60.4874 536.49 60.699 536.179 60.8364C535.871 60.9738 535.524 61.0426 535.137 61.0426ZM550.716 57.9175H547.288V46.8061H550.868C551.946 46.8061 552.869 47.0285 553.635 47.4734C554.402 47.9147 554.99 48.5495 555.399 49.3778C555.807 50.2024 556.012 51.1899 556.012 52.3401C556.012 53.4975 555.806 54.494 555.393 55.3295C554.981 56.1614 554.38 56.8016 553.592 57.2501C552.803 57.695 551.845 57.9175 550.716 57.9175ZM548.633 56.7239H550.63C551.548 56.7239 552.31 56.5466 552.914 56.1922C553.518 55.8377 553.968 55.3331 554.265 54.6785C554.561 54.0238 554.71 53.2443 554.71 52.3401C554.71 51.4431 554.563 50.6708 554.27 50.0234C553.977 49.3723 553.539 48.8732 552.957 48.5259C552.375 48.1751 551.65 47.9997 550.782 47.9997H548.633V56.7239ZM560.547 58.1128C560.019 58.1128 559.54 58.0133 559.11 57.8144C558.679 57.6118 558.337 57.3207 558.084 56.9409C557.831 56.5575 557.704 56.0945 557.704 55.552C557.704 55.0745 557.799 54.6875 557.987 54.3909C558.175 54.0907 558.426 53.8556 558.741 53.6856C559.055 53.5156 559.403 53.389 559.782 53.3058C560.166 53.219 560.551 53.1503 560.938 53.0996C561.444 53.0345 561.855 52.9857 562.17 52.9532C562.488 52.917 562.719 52.8573 562.864 52.7741C563.012 52.6909 563.087 52.5462 563.087 52.3401V52.2967C563.087 51.7614 562.94 51.3454 562.647 51.0488C562.358 50.7522 561.918 50.6039 561.329 50.6039C560.717 50.6039 560.238 50.7377 559.891 51.0054C559.544 51.2731 559.3 51.5588 559.158 51.8626L557.943 51.4286C558.16 50.9222 558.45 50.528 558.811 50.2458C559.177 49.9601 559.574 49.7612 560.005 49.649C560.439 49.5333 560.866 49.4754 561.285 49.4754C561.553 49.4754 561.86 49.508 562.208 49.5731C562.558 49.6346 562.897 49.763 563.222 49.9583C563.551 50.1536 563.824 50.4484 564.041 50.8426C564.258 51.2369 564.367 51.765 564.367 52.4269V57.9175H563.087V56.789H563.021C562.935 56.9698 562.79 57.1633 562.587 57.3695C562.385 57.5757 562.115 57.7511 561.779 57.8958C561.443 58.0405 561.032 58.1128 560.547 58.1128ZM560.743 56.9626C561.249 56.9626 561.676 56.8631 562.023 56.6642C562.374 56.4653 562.638 56.2084 562.815 55.8938C562.996 55.5791 563.087 55.2481 563.087 54.9009V53.729C563.032 53.7941 562.913 53.8538 562.728 53.908C562.548 53.9587 562.338 54.0039 562.099 54.0437C561.864 54.0798 561.634 54.1124 561.41 54.1413C561.189 54.1667 561.01 54.1884 560.873 54.2064C560.54 54.2498 560.229 54.3204 559.94 54.418C559.654 54.5121 559.423 54.6549 559.245 54.8466C559.072 55.0347 558.985 55.2915 558.985 55.6171C558.985 56.062 559.149 56.3983 559.479 56.6262C559.811 56.8505 560.233 56.9626 560.743 56.9626ZM570.328 49.5839V50.669H566.01V49.5839H570.328ZM567.268 47.5873H568.549V55.5303C568.549 55.892 568.601 56.1632 568.706 56.3441C568.815 56.5213 568.952 56.6407 569.118 56.7022C569.288 56.76 569.467 56.789 569.655 56.789C569.797 56.789 569.912 56.7817 570.003 56.7673C570.093 56.7492 570.165 56.7347 570.22 56.7239L570.48 57.8741C570.393 57.9066 570.272 57.9392 570.117 57.9717C569.961 58.0079 569.764 58.026 569.525 58.026C569.164 58.026 568.809 57.9482 568.462 57.7927C568.118 57.6372 567.833 57.4002 567.605 57.082C567.38 56.7637 567.268 56.3622 567.268 55.8775V47.5873ZM574.707 58.1128C574.179 58.1128 573.699 58.0133 573.269 57.8144C572.838 57.6118 572.497 57.3207 572.243 56.9409C571.99 56.5575 571.864 56.0945 571.864 55.552C571.864 55.0745 571.958 54.6875 572.146 54.3909C572.334 54.0907 572.585 53.8556 572.9 53.6856C573.215 53.5156 573.562 53.389 573.942 53.3058C574.325 53.219 574.71 53.1503 575.097 53.0996C575.604 53.0345 576.014 52.9857 576.329 52.9532C576.647 52.917 576.879 52.8573 577.023 52.7741C577.172 52.6909 577.246 52.5462 577.246 52.3401V52.2967C577.246 51.7614 577.099 51.3454 576.806 51.0488C576.517 50.7522 576.077 50.6039 575.488 50.6039C574.877 50.6039 574.397 50.7377 574.05 51.0054C573.703 51.2731 573.459 51.5588 573.318 51.8626L572.102 51.4286C572.319 50.9222 572.609 50.528 572.97 50.2458C573.336 49.9601 573.734 49.7612 574.164 49.649C574.598 49.5333 575.025 49.4754 575.444 49.4754C575.712 49.4754 576.02 49.508 576.367 49.5731C576.718 49.6346 577.056 49.763 577.381 49.9583C577.711 50.1536 577.984 50.4484 578.201 50.8426C578.418 51.2369 578.526 51.765 578.526 52.4269V57.9175H577.246V56.789H577.181C577.094 56.9698 576.949 57.1633 576.747 57.3695C576.544 57.5757 576.275 57.7511 575.938 57.8958C575.602 58.0405 575.191 58.1128 574.707 58.1128ZM574.902 56.9626C575.408 56.9626 575.835 56.8631 576.182 56.6642C576.533 56.4653 576.797 56.2084 576.974 55.8938C577.155 55.5791 577.246 55.2481 577.246 54.9009V53.729C577.191 53.7941 577.072 53.8538 576.888 53.908C576.707 53.9587 576.497 54.0039 576.258 54.0437C576.023 54.0798 575.794 54.1124 575.569 54.1413C575.349 54.1667 575.17 54.1884 575.032 54.2064C574.699 54.2498 574.388 54.3204 574.099 54.418C573.813 54.5121 573.582 54.6549 573.404 54.8466C573.231 55.0347 573.144 55.2915 573.144 55.6171C573.144 56.062 573.309 56.3983 573.638 56.6262C573.971 56.8505 574.392 56.9626 574.902 56.9626Z" fill="#8A92A6"/>
<path d="M870.738 47.9997V46.8061H879.071V47.9997H875.577V57.9175H874.232V47.9997H870.738ZM882.255 52.9043V57.9175H880.974V46.8061H882.255V50.886H882.363C882.559 50.4556 882.852 50.1138 883.242 49.8606C883.637 49.6038 884.161 49.4754 884.816 49.4754C885.384 49.4754 885.881 49.5893 886.308 49.8172C886.734 50.0415 887.065 50.3869 887.301 50.8535C887.539 51.3165 887.659 51.906 887.659 52.6222V57.9175H886.378V52.709C886.378 52.0471 886.206 51.5353 885.863 51.1736C885.523 50.8083 885.051 50.6256 884.447 50.6256C884.027 50.6256 883.651 50.7142 883.318 50.8915C882.989 51.0687 882.729 51.3273 882.537 51.6673C882.349 52.0073 882.255 52.4196 882.255 52.9043ZM890.001 57.9175V49.5839H891.282V57.9175H890.001ZM890.652 48.195C890.403 48.195 890.187 48.11 890.007 47.94C889.829 47.77 889.741 47.5656 889.741 47.3269C889.741 47.0882 889.829 46.8838 890.007 46.7138C890.187 46.5438 890.403 46.4588 890.652 46.4588C890.902 46.4588 891.115 46.5438 891.292 46.7138C891.473 46.8838 891.564 47.0882 891.564 47.3269C891.564 47.5656 891.473 47.77 891.292 47.94C891.115 48.11 890.902 48.195 890.652 48.195ZM899.53 51.4503L898.379 51.7758C898.307 51.5841 898.2 51.3978 898.059 51.217C897.922 51.0325 897.734 50.8806 897.495 50.7613C897.256 50.6419 896.951 50.5822 896.578 50.5822C896.068 50.5822 895.643 50.6998 895.303 50.9349C894.967 51.1664 894.799 51.4611 894.799 51.8192C894.799 52.1375 894.914 52.3889 895.146 52.5734C895.377 52.7578 895.739 52.9116 896.231 53.0345L897.468 53.3384C898.213 53.5192 898.768 53.7959 899.134 54.1685C899.499 54.5374 899.682 55.013 899.682 55.5954C899.682 56.0728 899.544 56.4996 899.269 56.8758C898.998 57.252 898.618 57.5485 898.13 57.7656C897.642 57.9826 897.074 58.0911 896.426 58.0911C895.576 58.0911 894.873 57.9066 894.316 57.5377C893.759 57.1688 893.406 56.6298 893.258 55.9209L894.473 55.6171C894.589 56.0656 894.808 56.402 895.13 56.6262C895.455 56.8505 895.88 56.9626 896.405 56.9626C897.001 56.9626 897.475 56.836 897.826 56.5828C898.18 56.326 898.358 56.0186 898.358 55.6605C898.358 55.3711 898.256 55.1288 898.054 54.9335C897.851 54.7345 897.54 54.5862 897.121 54.4886L895.732 54.163C894.969 53.9822 894.408 53.7019 894.05 53.3221C893.695 52.9387 893.518 52.4594 893.518 51.8843C893.518 51.4141 893.65 50.9982 893.914 50.6365C894.182 50.2748 894.545 49.9908 895.005 49.7847C895.468 49.5785 895.992 49.4754 896.578 49.4754C897.403 49.4754 898.05 49.6563 898.52 50.018C898.994 50.3797 899.331 50.8571 899.53 51.4503ZM908.098 57.9175L905.06 46.8061H906.427L908.749 55.8558H908.857L911.223 46.8061H912.742L915.108 55.8558H915.216L917.538 46.8061H918.905L915.867 57.9175H914.478L912.026 49.0631H911.939L909.487 57.9175H908.098ZM923.126 58.0911C922.323 58.0911 921.631 57.9139 921.048 57.5594C920.47 57.2013 920.023 56.7022 919.708 56.062C919.397 55.4181 919.242 54.6694 919.242 53.8158C919.242 52.9622 919.397 52.2099 919.708 51.5588C920.023 50.9041 920.461 50.3941 921.021 50.0288C921.586 49.6599 922.244 49.4754 922.996 49.4754C923.43 49.4754 923.859 49.5477 924.282 49.6924C924.705 49.8371 925.09 50.0722 925.438 50.3977C925.785 50.7197 926.062 51.1465 926.268 51.6782C926.474 52.2099 926.577 52.8645 926.577 53.6422V54.1847H920.153V53.0779H925.275C925.275 52.6077 925.181 52.1882 924.993 51.8192C924.808 51.4503 924.544 51.1591 924.201 50.9457C923.861 50.7323 923.459 50.6256 922.996 50.6256C922.486 50.6256 922.045 50.7522 921.672 51.0054C921.303 51.255 921.02 51.5805 920.821 51.982C920.622 52.3835 920.522 52.8139 920.522 53.2733V54.0111C920.522 54.6405 920.631 55.174 920.848 55.6116C921.068 56.0457 921.374 56.3766 921.765 56.6045C922.155 56.8288 922.609 56.9409 923.126 56.9409C923.463 56.9409 923.767 56.8939 924.038 56.7998C924.313 56.7022 924.55 56.5575 924.749 56.3658C924.948 56.1705 925.101 55.9281 925.21 55.6388L926.447 55.986C926.317 56.4056 926.098 56.7745 925.79 57.0928C925.483 57.4075 925.103 57.6534 924.651 57.8307C924.199 58.0043 923.691 58.0911 923.126 58.0911ZM932.019 58.0911C931.216 58.0911 930.523 57.9139 929.941 57.5594C929.362 57.2013 928.915 56.7022 928.601 56.062C928.29 55.4181 928.134 54.6694 928.134 53.8158C928.134 52.9622 928.29 52.2099 928.601 51.5588C928.915 50.9041 929.353 50.3941 929.914 50.0288C930.478 49.6599 931.136 49.4754 931.889 49.4754C932.323 49.4754 932.751 49.5477 933.174 49.6924C933.598 49.8371 933.983 50.0722 934.33 50.3977C934.677 50.7197 934.954 51.1465 935.16 51.6782C935.366 52.2099 935.469 52.8645 935.469 53.6422V54.1847H929.046V53.0779H934.167C934.167 52.6077 934.073 52.1882 933.885 51.8192C933.701 51.4503 933.437 51.1591 933.093 50.9457C932.753 50.7323 932.352 50.6256 931.889 50.6256C931.379 50.6256 930.937 50.7522 930.565 51.0054C930.196 51.255 929.912 51.5805 929.713 51.982C929.514 52.3835 929.415 52.8139 929.415 53.2733V54.0111C929.415 54.6405 929.523 55.174 929.74 55.6116C929.961 56.0457 930.266 56.3766 930.657 56.6045C931.048 56.8288 931.502 56.9409 932.019 56.9409C932.355 56.9409 932.659 56.8939 932.93 56.7998C933.205 56.7022 933.442 56.5575 933.641 56.3658C933.84 56.1705 933.994 55.9281 934.102 55.6388L935.339 55.986C935.209 56.4056 934.99 56.7745 934.683 57.0928C934.375 57.4075 933.996 57.6534 933.543 57.8307C933.091 58.0043 932.583 58.0911 932.019 58.0911ZM938.611 54.8792L938.589 53.295H938.85L942.495 49.5839H944.08L940.195 53.512H940.087L938.611 54.8792ZM937.417 57.9175V46.8061H938.698V57.9175H937.417ZM942.712 57.9175L939.457 53.7941L940.369 52.9043L944.34 57.9175H942.712Z" fill="#8A92A6"/>
<path d="M970.782 49.0757L964.097 55.7599L957.413 49.0757" stroke="#232D42" stroke-width="1.43233" stroke-linecap="round" stroke-linejoin="round"/>
<path d="M27.6051 112.571C28.0609 112.575 28.5166 112.662 28.9723 112.832C29.4281 113.002 29.844 113.284 30.2202 113.678C30.5964 114.069 30.8984 114.602 31.1263 115.278C31.3541 115.955 31.4681 116.803 31.4681 117.823C31.4681 118.81 31.374 119.688 31.1859 120.454C31.0015 121.218 30.7338 121.861 30.383 122.386C30.0357 122.91 29.6125 123.308 29.1134 123.579C28.6179 123.851 28.0572 123.986 27.4315 123.986C26.8094 123.986 26.2542 123.863 25.7659 123.617C25.2812 123.368 24.8833 123.022 24.5723 122.581C24.2648 122.136 24.0677 121.621 23.9809 121.035H25.3047C25.4241 121.545 25.661 121.966 26.0154 122.299C26.3735 122.628 26.8455 122.793 27.4315 122.793C28.2887 122.793 28.9651 122.418 29.4606 121.67C29.9598 120.921 30.2093 119.863 30.2093 118.496H30.1225C29.92 118.8 29.6795 119.062 29.4009 119.282C29.1224 119.503 28.8132 119.673 28.4732 119.792C28.1332 119.912 27.7715 119.972 27.3881 119.972C26.7515 119.972 26.1674 119.814 25.6357 119.5C25.1076 119.181 24.6844 118.745 24.3661 118.192C24.0514 117.635 23.8941 116.998 23.8941 116.282C23.8941 115.602 24.046 114.98 24.3498 114.416C24.6573 113.848 25.0877 113.396 25.6411 113.059C26.1981 112.723 26.8528 112.56 27.6051 112.571ZM27.6051 113.765C27.1494 113.765 26.7388 113.879 26.3735 114.107C26.0118 114.331 25.7243 114.635 25.5109 115.018C25.3011 115.398 25.1962 115.819 25.1962 116.282C25.1962 116.745 25.2975 117.167 25.5 117.546C25.7062 117.922 25.9865 118.223 26.341 118.447C26.6991 118.668 27.106 118.778 27.5617 118.778C27.9053 118.778 28.2254 118.711 28.522 118.577C28.8186 118.44 29.0772 118.253 29.2979 118.018C29.5221 117.78 29.6975 117.51 29.8241 117.21C29.9507 116.906 30.014 116.59 30.014 116.26C30.014 115.826 29.9091 115.42 29.6994 115.04C29.4932 114.66 29.2074 114.353 28.8421 114.117C28.4804 113.882 28.0681 113.765 27.6051 113.765ZM37.1391 112.571C37.5948 112.575 38.0505 112.662 38.5063 112.832C38.962 113.002 39.378 113.284 39.7541 113.678C40.1303 114.069 40.4323 114.602 40.6602 115.278C40.8881 115.955 41.002 116.803 41.002 117.823C41.002 118.81 40.908 119.688 40.7199 120.454C40.5354 121.218 40.2678 121.861 39.9169 122.386C39.5697 122.91 39.1465 123.308 38.6473 123.579C38.1518 123.851 37.5912 123.986 36.9654 123.986C36.3433 123.986 35.7881 123.863 35.2998 123.617C34.8151 123.368 34.4173 123.022 34.1062 122.581C33.7988 122.136 33.6016 121.621 33.5148 121.035H34.8387C34.958 121.545 35.1949 121.966 35.5494 122.299C35.9075 122.628 36.3795 122.793 36.9654 122.793C37.8227 122.793 38.4991 122.418 38.9946 121.67C39.4937 120.921 39.7433 119.863 39.7433 118.496H39.6565C39.4539 118.8 39.2134 119.062 38.9349 119.282C38.6564 119.503 38.3471 119.673 38.0071 119.792C37.6671 119.912 37.3054 119.972 36.922 119.972C36.2854 119.972 35.7013 119.814 35.1696 119.5C34.6415 119.181 34.2183 118.745 33.9 118.192C33.5854 117.635 33.428 116.998 33.428 116.282C33.428 115.602 33.5799 114.98 33.8838 114.416C34.1912 113.848 34.6216 113.396 35.175 113.059C35.732 112.723 36.3867 112.56 37.1391 112.571ZM37.1391 113.765C36.6833 113.765 36.2728 113.879 35.9075 114.107C35.5458 114.331 35.2582 114.635 35.0448 115.018C34.835 115.398 34.7301 115.819 34.7301 116.282C34.7301 116.745 34.8314 117.167 35.034 117.546C35.2401 117.922 35.5205 118.223 35.8749 118.447C36.233 118.668 36.6399 118.778 37.0957 118.778C37.4393 118.778 37.7594 118.711 38.056 118.577C38.3526 118.44 38.6112 118.253 38.8318 118.018C39.0561 117.78 39.2315 117.51 39.3581 117.21C39.4847 116.906 39.548 116.59 39.548 116.26C39.548 115.826 39.4431 115.42 39.2333 115.04C39.0271 114.66 38.7414 114.353 38.3761 114.117C38.0144 113.882 37.602 113.765 37.1391 113.765Z" fill="#8A92A6"/>
<path d="M27.6051 162.489C28.0609 162.492 28.5166 162.579 28.9723 162.749C29.4281 162.919 29.844 163.201 30.2202 163.595C30.5964 163.986 30.8984 164.52 31.1263 165.196C31.3541 165.872 31.4681 166.721 31.4681 167.741C31.4681 168.728 31.374 169.605 31.1859 170.372C31.0015 171.135 30.7338 171.779 30.383 172.303C30.0357 172.828 29.6125 173.226 29.1134 173.497C28.6179 173.768 28.0572 173.904 27.4315 173.904C26.8094 173.904 26.2542 173.781 25.7659 173.535C25.2812 173.285 24.8833 172.94 24.5723 172.499C24.2648 172.054 24.0677 171.538 23.9809 170.952H25.3047C25.4241 171.462 25.661 171.884 26.0154 172.217C26.3735 172.546 26.8455 172.71 27.4315 172.71C28.2887 172.71 28.9651 172.336 29.4606 171.587C29.9598 170.838 30.2093 169.78 30.2093 168.413H30.1225C29.92 168.717 29.6795 168.979 29.4009 169.2C29.1224 169.421 28.8132 169.591 28.4732 169.71C28.1332 169.829 27.7715 169.889 27.3881 169.889C26.7515 169.889 26.1674 169.732 25.6357 169.417C25.1076 169.099 24.6844 168.663 24.3661 168.109C24.0514 167.552 23.8941 166.916 23.8941 166.2C23.8941 165.52 24.046 164.898 24.3498 164.333C24.6573 163.765 25.0877 163.313 25.6411 162.977C26.1981 162.641 26.8528 162.478 27.6051 162.489ZM27.6051 163.682C27.1494 163.682 26.7388 163.796 26.3735 164.024C26.0118 164.248 25.7243 164.552 25.5109 164.936C25.3011 165.315 25.1962 165.737 25.1962 166.2C25.1962 166.663 25.2975 167.084 25.5 167.464C25.7062 167.84 25.9865 168.14 26.341 168.364C26.6991 168.585 27.106 168.695 27.5617 168.695C27.9053 168.695 28.2254 168.628 28.522 168.495C28.8186 168.357 29.0772 168.171 29.2979 167.936C29.5221 167.697 29.6975 167.428 29.8241 167.127C29.9507 166.824 30.014 166.507 30.014 166.178C30.014 165.744 29.9091 165.337 29.6994 164.957C29.4932 164.577 29.2074 164.27 28.8421 164.035C28.4804 163.8 28.0681 163.682 27.6051 163.682ZM37.2259 173.904C36.4084 173.904 35.7122 173.681 35.1371 173.237C34.562 172.788 34.1225 172.139 33.8187 171.289C33.5148 170.435 33.3629 169.404 33.3629 168.196C33.3629 166.995 33.5148 165.97 33.8187 165.12C34.1261 164.266 34.5674 163.615 35.1425 163.167C35.7212 162.715 36.4157 162.489 37.2259 162.489C38.0361 162.489 38.7287 162.715 39.3038 163.167C39.8826 163.615 40.3238 164.266 40.6277 165.12C40.9351 165.97 41.0888 166.995 41.0888 168.196C41.0888 169.404 40.9369 170.435 40.6331 171.289C40.3293 172.139 39.8898 172.788 39.3147 173.237C38.7396 173.681 38.0433 173.904 37.2259 173.904ZM37.2259 172.71C38.0361 172.71 38.6654 172.32 39.1139 171.538C39.5624 170.757 39.7867 169.643 39.7867 168.196C39.7867 167.234 39.6836 166.415 39.4774 165.738C39.2749 165.062 38.9819 164.547 38.5985 164.192C38.2187 163.838 37.7612 163.661 37.2259 163.661C36.4229 163.661 35.7953 164.057 35.3432 164.849C34.8911 165.637 34.665 166.753 34.665 168.196C34.665 169.158 34.7663 169.976 34.9689 170.649C35.1714 171.321 35.4626 171.833 35.8424 172.184C36.2258 172.535 36.6869 172.71 37.2259 172.71Z" fill="#8A92A6"/>
<path d="M27.6268 223.821C26.8817 223.821 26.2234 223.689 25.6519 223.425C25.0841 223.157 24.641 222.79 24.3227 222.323C24.0044 221.853 23.847 221.318 23.8507 220.717C23.847 220.247 23.9393 219.813 24.1274 219.415C24.3154 219.014 24.5723 218.679 24.8978 218.412C25.2269 218.14 25.5941 217.969 25.9992 217.896V217.831C25.4675 217.694 25.0443 217.395 24.7296 216.936C24.4149 216.473 24.2594 215.947 24.263 215.357C24.2594 214.793 24.4023 214.288 24.6916 213.843C24.981 213.398 25.3788 213.048 25.8852 212.791C26.3952 212.534 26.9758 212.406 27.6268 212.406C28.2706 212.406 28.8457 212.534 29.3521 212.791C29.8585 213.048 30.2564 213.398 30.5457 213.843C30.8387 214.288 30.987 214.793 30.9906 215.357C30.987 215.947 30.826 216.473 30.5077 216.936C30.1931 217.395 29.7753 217.694 29.2545 217.831V217.896C29.6559 217.969 30.0176 218.14 30.3396 218.412C30.6615 218.679 30.9183 219.014 31.11 219.415C31.3017 219.813 31.3993 220.247 31.403 220.717C31.3993 221.318 31.2366 221.853 30.9147 222.323C30.5964 222.79 30.1533 223.157 29.5854 223.425C29.0212 223.689 28.3683 223.821 27.6268 223.821ZM27.6268 222.627C28.1296 222.627 28.5636 222.546 28.9289 222.383C29.2942 222.22 29.5764 221.991 29.7753 221.694C29.9742 221.397 30.0755 221.05 30.0791 220.652C30.0755 220.233 29.967 219.862 29.7536 219.54C29.5402 219.218 29.249 218.965 28.8801 218.781C28.5148 218.596 28.097 218.504 27.6268 218.504C27.153 218.504 26.7298 218.596 26.3572 218.781C25.9883 218.965 25.6971 219.218 25.4837 219.54C25.274 219.862 25.1709 220.233 25.1745 220.652C25.1709 221.05 25.2667 221.397 25.462 221.694C25.661 221.991 25.9449 222.22 26.3138 222.383C26.6828 222.546 27.1204 222.627 27.6268 222.627ZM27.6268 217.354C28.0247 217.354 28.3773 217.274 28.6848 217.115C28.9958 216.956 29.24 216.733 29.4172 216.448C29.5945 216.162 29.6849 215.827 29.6885 215.444C29.6849 215.068 29.5963 214.74 29.4226 214.462C29.249 214.18 29.0085 213.963 28.7011 213.811C28.3936 213.655 28.0355 213.578 27.6268 213.578C27.2109 213.578 26.8473 213.655 26.5363 213.811C26.2252 213.963 25.9847 214.18 25.8147 214.462C25.6447 214.74 25.5615 215.068 25.5651 215.444C25.5615 215.827 25.6465 216.162 25.8201 216.448C25.9974 216.733 26.2415 216.956 26.5526 217.115C26.8636 217.274 27.2217 217.354 27.6268 217.354ZM37.3886 212.558V223.669H36.0431V213.968H35.978L33.2653 215.769V214.402L36.0431 212.558H37.3886Z" fill="#8A92A6"/>
<path d="M24.4149 273.586L29.3847 263.755V263.669H23.6553V262.475H30.7736V263.734L25.8255 273.586H24.4149ZM32.796 273.586V272.61L36.4636 268.595C36.894 268.125 37.2485 267.716 37.527 267.369C37.8055 267.018 38.0117 266.689 38.1455 266.381C38.2829 266.07 38.3517 265.745 38.3517 265.405C38.3517 265.014 38.2576 264.676 38.0695 264.39C37.8851 264.104 37.6319 263.884 37.31 263.728C36.9881 263.573 36.6264 263.495 36.2249 263.495C35.7981 263.495 35.4255 263.584 35.1072 263.761C34.7925 263.934 34.5484 264.179 34.3748 264.493C34.2048 264.808 34.1198 265.177 34.1198 265.6H32.8394C32.8394 264.949 32.9895 264.378 33.2897 263.886C33.5899 263.394 33.9986 263.01 34.5158 262.735C35.0367 262.461 35.6208 262.323 36.2683 262.323C36.9193 262.323 37.4962 262.461 37.999 262.735C38.5018 263.01 38.896 263.381 39.1818 263.848C39.4675 264.314 39.6104 264.833 39.6104 265.405C39.6104 265.813 39.5362 266.213 39.3879 266.604C39.2432 266.991 38.9901 267.423 38.6284 267.901C38.2703 268.374 37.7729 268.953 37.1363 269.637L34.6406 272.306V272.393H39.8057V273.586H32.796Z" fill="#8A92A6"/>
<path d="M27.757 323.655C27.3013 323.648 26.8455 323.561 26.3898 323.395C25.9341 323.229 25.5181 322.948 25.1419 322.554C24.7658 322.156 24.4637 321.619 24.2359 320.943C24.008 320.263 23.8941 319.409 23.8941 318.382C23.8941 317.398 23.9863 316.526 24.1708 315.767C24.3552 315.003 24.6229 314.361 24.9737 313.841C25.3246 313.316 25.7478 312.918 26.2433 312.647C26.7425 312.376 27.3049 312.24 27.9306 312.24C28.5528 312.24 29.1062 312.365 29.5908 312.614C30.0791 312.86 30.477 313.204 30.7844 313.645C31.0919 314.087 31.2908 314.595 31.3813 315.17H30.0574C29.9345 314.671 29.6957 314.257 29.3413 313.927C28.9868 313.598 28.5166 313.434 27.9306 313.434C27.0698 313.434 26.3916 313.808 25.8961 314.557C25.4042 315.305 25.1564 316.356 25.1528 317.709H25.2396C25.4421 317.402 25.6827 317.139 25.9612 316.922C26.2433 316.702 26.5544 316.532 26.8944 316.412C27.2344 316.293 27.5943 316.233 27.974 316.233C28.6106 316.233 29.193 316.392 29.7211 316.711C30.2491 317.025 30.6723 317.461 30.9906 318.018C31.3089 318.572 31.4681 319.206 31.4681 319.923C31.4681 320.61 31.3143 321.239 31.0069 321.811C30.6994 322.379 30.2672 322.831 29.7102 323.167C29.1568 323.5 28.5057 323.663 27.757 323.655ZM27.757 322.462C28.2128 322.462 28.6215 322.348 28.9832 322.12C29.3485 321.892 29.6361 321.586 29.8458 321.203C30.0592 320.82 30.1659 320.393 30.1659 319.923C30.1659 319.463 30.0629 319.045 29.8567 318.669C29.6541 318.29 29.3738 317.987 29.0157 317.763C28.6613 317.539 28.2562 317.427 27.8004 317.427C27.4568 317.427 27.1367 317.496 26.8401 317.633C26.5435 317.767 26.2831 317.951 26.0588 318.186C25.8382 318.422 25.6646 318.691 25.538 318.995C25.4114 319.295 25.3481 319.612 25.3481 319.944C25.3481 320.386 25.4512 320.798 25.6574 321.181C25.8671 321.565 26.1529 321.874 26.5146 322.109C26.8799 322.344 27.294 322.462 27.757 322.462ZM37.3561 323.655C36.6399 323.655 36.0015 323.532 35.4409 323.286C34.8839 323.04 34.4408 322.699 34.1116 322.261C33.7861 321.82 33.6089 321.308 33.5799 320.726H34.9472C34.9761 321.084 35.0991 321.393 35.3161 321.653C35.5331 321.91 35.817 322.109 36.1679 322.25C36.5187 322.391 36.9076 322.462 37.3344 322.462C37.8118 322.462 38.235 322.379 38.6039 322.212C38.9729 322.046 39.2622 321.814 39.472 321.518C39.6818 321.221 39.7867 320.877 39.7867 320.487C39.7867 320.078 39.6854 319.718 39.4829 319.407C39.2803 319.092 38.9837 318.847 38.5931 318.669C38.2025 318.492 37.725 318.403 37.1608 318.403H36.271V317.21H37.1608C37.602 317.21 37.9891 317.13 38.3218 316.971C38.6582 316.812 38.9204 316.588 39.1085 316.298C39.3002 316.009 39.3961 315.669 39.3961 315.278C39.3961 314.902 39.3129 314.575 39.1465 314.296C38.9801 314.018 38.745 313.801 38.4412 313.645C38.141 313.49 37.7865 313.412 37.3778 313.412C36.9944 313.412 36.6327 313.483 36.2927 313.624C35.9563 313.761 35.6814 313.962 35.468 314.226C35.2546 314.486 35.1389 314.801 35.1208 315.17H33.8187C33.8404 314.588 34.0158 314.078 34.3449 313.64C34.6741 313.199 35.1045 312.855 35.6362 312.609C36.1715 312.363 36.7593 312.24 37.3995 312.24C38.0867 312.24 38.6763 312.379 39.1682 312.658C39.6601 312.933 40.0381 313.296 40.3021 313.748C40.5662 314.201 40.6982 314.689 40.6982 315.213C40.6982 315.839 40.5336 316.373 40.2045 316.814C39.8789 317.255 39.4359 317.561 38.8752 317.731V317.817C39.5769 317.933 40.1249 318.232 40.5191 318.713C40.9134 319.19 41.1105 319.782 41.1105 320.487C41.1105 321.091 40.946 321.633 40.6168 322.114C40.2913 322.592 39.8464 322.968 39.2821 323.243C38.7179 323.518 38.0759 323.655 37.3561 323.655Z" fill="#8A92A6"/>
<path d="M27.54 373.573C26.9034 373.573 26.3301 373.446 25.8201 373.193C25.3101 372.94 24.9014 372.593 24.594 372.151C24.2865 371.71 24.1183 371.207 24.0894 370.643H25.3915C25.4421 371.146 25.67 371.562 26.0751 371.891C26.4838 372.216 26.9721 372.379 27.54 372.379C27.9957 372.379 28.4008 372.273 28.7553 372.059C29.1134 371.846 29.3937 371.553 29.5963 371.18C29.8024 370.804 29.9055 370.379 29.9055 369.905C29.9055 369.42 29.7988 368.988 29.5854 368.608C29.3756 368.225 29.0863 367.923 28.7173 367.702C28.3484 367.482 27.927 367.37 27.4532 367.366C27.1132 367.362 26.7642 367.415 26.4061 367.523C26.048 367.628 25.7532 367.764 25.5217 367.93L24.263 367.778L24.9358 362.309H30.7085V363.503H26.0643L25.6736 366.78H25.7387C25.9666 366.599 26.2524 366.449 26.596 366.33C26.9396 366.21 27.2977 366.151 27.6702 366.151C28.3502 366.151 28.9561 366.313 29.4878 366.639C30.0231 366.961 30.4426 367.402 30.7465 367.963C31.0539 368.523 31.2076 369.164 31.2076 369.883C31.2076 370.592 31.0485 371.225 30.7302 371.782C30.4155 372.336 29.9815 372.773 29.4281 373.095C28.8747 373.414 28.2453 373.573 27.54 373.573ZM33.1025 371.142V370.035L37.9854 362.309H38.7884V364.024H38.2459L34.5565 369.862V369.949H41.1322V371.142H33.1025ZM38.3327 373.421V370.806V370.29V362.309H39.6131V373.421H38.3327Z" fill="#8A92A6"/>
<line x1="67.6504" y1="371.726" x2="973.838" y2="371.726" stroke="#E9ECEF" stroke-width="0.954887"/>
<line x1="68.128" y1="377.933" x2="68.128" y2="371.248" stroke="#8A92A6" stroke-width="0.954887"/>
<line x1="227.594" y1="377.933" x2="227.594" y2="371.248" stroke="#8A92A6" stroke-width="0.954887"/>
<line x1="379.421" y1="377.933" x2="379.421" y2="371.248" stroke="#8A92A6" stroke-width="0.954887"/>
<line x1="527.429" y1="377.933" x2="527.429" y2="371.248" stroke="#8A92A6" stroke-width="0.954887"/>
<line x1="672.571" y1="377.933" x2="672.571" y2="371.248" stroke="#8A92A6" stroke-width="0.954887"/>
<line x1="813.895" y1="377.933" x2="813.895" y2="371.248" stroke="#8A92A6" stroke-width="0.954887"/>
<line x1="973.361" y1="377.933" x2="973.361" y2="371.248" stroke="#8A92A6" stroke-width="0.954887"/>
<path d="M56.208 385.821H57.5535V393.764C57.5535 394.473 57.4233 395.075 57.1629 395.571C56.9025 396.066 56.5353 396.443 56.0615 396.699C55.5877 396.956 55.0289 397.085 54.385 397.085C53.7774 397.085 53.2366 396.974 52.7628 396.754C52.289 396.529 51.9164 396.211 51.6452 395.799C51.3739 395.386 51.2382 394.896 51.2382 394.328H52.5621C52.5621 394.643 52.6398 394.918 52.7954 395.153C52.9545 395.385 53.1715 395.565 53.4464 395.696C53.7213 395.826 54.0342 395.891 54.385 395.891C54.7721 395.891 55.1012 395.81 55.3725 395.647C55.6437 395.484 55.8499 395.245 55.991 394.931C56.1357 394.612 56.208 394.223 56.208 393.764V385.821ZM62.5287 397.128C62.0006 397.128 61.5214 397.028 61.0909 396.83C60.6605 396.627 60.3187 396.336 60.0655 395.956C59.8123 395.573 59.6857 395.11 59.6857 394.567C59.6857 394.09 59.7798 393.703 59.9679 393.406C60.156 393.106 60.4073 392.871 60.722 392.701C61.0367 392.531 61.3839 392.404 61.7637 392.321C62.1471 392.234 62.5323 392.165 62.9193 392.115C63.4257 392.05 63.8362 392.001 64.1509 391.968C64.4692 391.932 64.7007 391.872 64.8454 391.789C64.9937 391.706 65.0678 391.561 65.0678 391.355V391.312C65.0678 390.776 64.9213 390.361 64.6284 390.064C64.339 389.767 63.8995 389.619 63.31 389.619C62.6987 389.619 62.2194 389.753 61.8722 390.021C61.525 390.288 61.2808 390.574 61.1398 390.878L59.9245 390.444C60.1415 389.937 60.4308 389.543 60.7925 389.261C61.1579 388.975 61.5557 388.776 61.9862 388.664C62.4202 388.548 62.847 388.491 63.2666 388.491C63.5342 388.491 63.8417 388.523 64.1889 388.588C64.5398 388.65 64.8779 388.778 65.2035 388.973C65.5326 389.169 65.8057 389.464 66.0227 389.858C66.2397 390.252 66.3482 390.78 66.3482 391.442V396.933H65.0678V395.804H65.0027C64.9159 395.985 64.7712 396.178 64.5687 396.385C64.3661 396.591 64.0967 396.766 63.7603 396.911C63.4239 397.056 63.0134 397.128 62.5287 397.128ZM62.724 395.978C63.2304 395.978 63.6572 395.878 64.0044 395.679C64.3553 395.48 64.6193 395.224 64.7966 394.909C64.9774 394.594 65.0678 394.263 65.0678 393.916V392.744C65.0136 392.809 64.8942 392.869 64.7097 392.923C64.5289 392.974 64.3191 393.019 64.0804 393.059C63.8453 393.095 63.6156 393.128 63.3914 393.156C63.1707 393.182 62.9917 393.203 62.8542 393.222C62.5215 393.265 62.2104 393.336 61.921 393.433C61.6353 393.527 61.4038 393.67 61.2266 393.862C61.053 394.05 60.9662 394.307 60.9662 394.632C60.9662 395.077 61.1307 395.413 61.4599 395.641C61.7926 395.866 62.214 395.978 62.724 395.978ZM69.9657 391.919V396.933H68.6853V388.599H69.9223V389.901H70.0308C70.2261 389.478 70.5227 389.138 70.9206 388.881C71.3185 388.621 71.8321 388.491 72.4614 388.491C73.0257 388.491 73.5194 388.606 73.9426 388.838C74.3658 389.066 74.6949 389.413 74.93 389.879C75.1651 390.342 75.2827 390.928 75.2827 391.637V396.933H74.0023V391.724C74.0023 391.069 73.8323 390.559 73.4923 390.194C73.1523 389.825 72.6857 389.641 72.0925 389.641C71.6838 389.641 71.3185 389.729 70.9965 389.907C70.6782 390.084 70.4269 390.342 70.2424 390.682C70.0579 391.022 69.9657 391.435 69.9657 391.919Z" fill="#8A92A6"/>
<path d="M203.999 396.933V385.821H210.662V387.015H205.345V390.769H210.163V391.963H205.345V396.933H203.999ZM215.675 397.106C214.872 397.106 214.179 396.929 213.597 396.575C213.018 396.216 212.572 395.717 212.257 395.077C211.946 394.433 211.79 393.685 211.79 392.831C211.79 391.977 211.946 391.225 212.257 390.574C212.572 389.919 213.009 389.409 213.57 389.044C214.134 388.675 214.792 388.491 215.545 388.491C215.979 388.491 216.407 388.563 216.831 388.708C217.254 388.852 217.639 389.087 217.986 389.413C218.333 389.735 218.61 390.162 218.816 390.693C219.023 391.225 219.126 391.88 219.126 392.657V393.2H212.702V392.093H217.823C217.823 391.623 217.729 391.203 217.541 390.834C217.357 390.465 217.093 390.174 216.749 389.961C216.409 389.747 216.008 389.641 215.545 389.641C215.035 389.641 214.594 389.767 214.221 390.021C213.852 390.27 213.568 390.596 213.369 390.997C213.17 391.399 213.071 391.829 213.071 392.288V393.026C213.071 393.656 213.179 394.189 213.396 394.627C213.617 395.061 213.923 395.392 214.313 395.62C214.704 395.844 215.158 395.956 215.675 395.956C216.011 395.956 216.315 395.909 216.586 395.815C216.861 395.717 217.098 395.573 217.297 395.381C217.496 395.186 217.65 394.943 217.758 394.654L218.995 395.001C218.865 395.421 218.646 395.79 218.339 396.108C218.031 396.423 217.652 396.669 217.2 396.846C216.747 397.019 216.239 397.106 215.675 397.106ZM221.247 396.933V385.821H222.527V389.923H222.636C222.73 389.778 222.86 389.594 223.027 389.369C223.197 389.142 223.439 388.939 223.754 388.762C224.072 388.581 224.502 388.491 225.045 388.491C225.747 388.491 226.365 388.666 226.9 389.017C227.436 389.368 227.853 389.865 228.154 390.509C228.454 391.153 228.604 391.912 228.604 392.788C228.604 393.67 228.454 394.435 228.154 395.083C227.853 395.726 227.437 396.225 226.906 396.58C226.374 396.931 225.761 397.106 225.067 397.106C224.531 397.106 224.103 397.018 223.781 396.84C223.459 396.66 223.211 396.455 223.037 396.227C222.864 395.996 222.73 395.804 222.636 395.652H222.484V396.933H221.247ZM222.506 392.766C222.506 393.395 222.598 393.95 222.782 394.431C222.967 394.909 223.236 395.283 223.591 395.555C223.945 395.822 224.379 395.956 224.893 395.956C225.428 395.956 225.875 395.815 226.233 395.533C226.595 395.247 226.866 394.864 227.047 394.383C227.231 393.898 227.324 393.359 227.324 392.766C227.324 392.18 227.233 391.652 227.052 391.182C226.875 390.708 226.606 390.333 226.244 390.059C225.886 389.78 225.435 389.641 224.893 389.641C224.372 389.641 223.934 389.773 223.58 390.037C223.225 390.297 222.958 390.663 222.777 391.133C222.596 391.599 222.506 392.144 222.506 392.766Z" fill="#8A92A6"/>
<path d="M357.045 385.821H358.651L362.427 395.045H362.557L366.333 385.821H367.939V396.933H366.68V388.491H366.572L363.1 396.933H361.884L358.412 388.491H358.303V396.933H357.045V385.821ZM372.916 397.128C372.388 397.128 371.908 397.028 371.478 396.83C371.047 396.627 370.706 396.336 370.452 395.956C370.199 395.573 370.073 395.11 370.073 394.567C370.073 394.09 370.167 393.703 370.355 393.406C370.543 393.106 370.794 392.871 371.109 392.701C371.424 392.531 371.771 392.404 372.151 392.321C372.534 392.234 372.919 392.165 373.306 392.115C373.813 392.05 374.223 392.001 374.538 391.968C374.856 391.932 375.088 391.872 375.232 391.789C375.381 391.706 375.455 391.561 375.455 391.355V391.312C375.455 390.776 375.308 390.361 375.015 390.064C374.726 389.767 374.287 389.619 373.697 389.619C373.086 389.619 372.606 389.753 372.259 390.021C371.912 390.288 371.668 390.574 371.527 390.878L370.311 390.444C370.528 389.937 370.818 389.543 371.18 389.261C371.545 388.975 371.943 388.776 372.373 388.664C372.807 388.548 373.234 388.491 373.654 388.491C373.921 388.491 374.229 388.523 374.576 388.588C374.927 388.65 375.265 388.778 375.59 388.973C375.92 389.169 376.193 389.464 376.41 389.858C376.627 390.252 376.735 390.78 376.735 391.442V396.933H375.455V395.804H375.39C375.303 395.985 375.158 396.178 374.956 396.385C374.753 396.591 374.484 396.766 374.147 396.911C373.811 397.056 373.4 397.128 372.916 397.128ZM373.111 395.978C373.617 395.978 374.044 395.878 374.391 395.679C374.742 395.48 375.006 395.224 375.184 394.909C375.364 394.594 375.455 394.263 375.455 393.916V392.744C375.401 392.809 375.281 392.869 375.097 392.923C374.916 392.974 374.706 393.019 374.467 393.059C374.232 393.095 374.003 393.128 373.778 393.156C373.558 393.182 373.379 393.203 373.241 393.222C372.908 393.265 372.597 393.336 372.308 393.433C372.022 393.527 371.791 393.67 371.614 393.862C371.44 394.05 371.353 394.307 371.353 394.632C371.353 395.077 371.518 395.413 371.847 395.641C372.18 395.866 372.601 395.978 373.111 395.978ZM379.072 396.933V388.599H380.309V389.858H380.396C380.548 389.445 380.823 389.111 381.221 388.854C381.619 388.597 382.067 388.469 382.566 388.469C382.66 388.469 382.778 388.471 382.919 388.474C383.06 388.478 383.167 388.483 383.239 388.491V389.793C383.196 389.782 383.096 389.766 382.941 389.744C382.789 389.719 382.628 389.706 382.458 389.706C382.053 389.706 381.691 389.791 381.373 389.961C381.058 390.127 380.808 390.359 380.624 390.655C380.443 390.948 380.353 391.283 380.353 391.659V396.933H379.072Z" fill="#8A92A6"/>
<path d="M511.545 396.933H510.135L514.215 385.821H515.604L519.684 396.933H518.273L514.953 387.579H514.866L511.545 396.933ZM512.066 392.592H517.752V393.786H512.066V392.592ZM521.241 400.058V388.599H522.478V389.923H522.63C522.724 389.778 522.854 389.594 523.02 389.369C523.19 389.142 523.433 388.939 523.747 388.762C524.066 388.581 524.496 388.491 525.039 388.491C525.74 388.491 526.359 388.666 526.894 389.017C527.429 389.368 527.847 389.865 528.147 390.509C528.448 391.153 528.598 391.912 528.598 392.788C528.598 393.67 528.448 394.435 528.147 395.083C527.847 395.726 527.431 396.225 526.9 396.58C526.368 396.931 525.755 397.106 525.06 397.106C524.525 397.106 524.096 397.018 523.774 396.84C523.453 396.66 523.205 396.455 523.031 396.227C522.858 395.996 522.724 395.804 522.63 395.652H522.521V400.058H521.241ZM522.499 392.766C522.499 393.395 522.592 393.95 522.776 394.431C522.961 394.909 523.23 395.283 523.585 395.555C523.939 395.822 524.373 395.956 524.887 395.956C525.422 395.956 525.869 395.815 526.227 395.533C526.588 395.247 526.86 394.864 527.041 394.383C527.225 393.898 527.317 393.359 527.317 392.766C527.317 392.18 527.227 391.652 527.046 391.182C526.869 390.708 526.599 390.333 526.238 390.059C525.88 389.78 525.429 389.641 524.887 389.641C524.366 389.641 523.928 389.773 523.574 390.037C523.219 390.297 522.952 390.663 522.771 391.133C522.59 391.599 522.499 392.144 522.499 392.766ZM530.551 396.933V388.599H531.788V389.858H531.875C532.027 389.445 532.302 389.111 532.699 388.854C533.097 388.597 533.546 388.469 534.045 388.469C534.139 388.469 534.257 388.471 534.398 388.474C534.539 388.478 534.645 388.483 534.718 388.491V389.793C534.674 389.782 534.575 389.766 534.419 389.744C534.267 389.719 534.106 389.706 533.936 389.706C533.531 389.706 533.17 389.791 532.851 389.961C532.537 390.127 532.287 390.359 532.103 390.655C531.922 390.948 531.831 391.283 531.831 391.659V396.933H530.551Z" fill="#8A92A6"/>
<path d="M667.388 385.821H668.734V393.764C668.734 394.473 668.603 395.075 668.343 395.571C668.083 396.066 667.716 396.443 667.242 396.699C666.768 396.956 666.209 397.085 665.565 397.085C664.958 397.085 664.417 396.974 663.943 396.754C663.469 396.529 663.097 396.211 662.825 395.799C662.554 395.386 662.418 394.896 662.418 394.328H663.742C663.742 394.643 663.82 394.918 663.976 395.153C664.135 395.385 664.352 395.565 664.627 395.696C664.901 395.826 665.214 395.891 665.565 395.891C665.952 395.891 666.281 395.81 666.553 395.647C666.824 395.484 667.03 395.245 667.171 394.931C667.316 394.612 667.388 394.223 667.388 393.764V385.821ZM676.508 393.525V388.599H677.789V396.933H676.508V395.522H676.422C676.226 395.945 675.922 396.305 675.51 396.602C675.098 396.895 674.577 397.041 673.948 397.041C673.427 397.041 672.964 396.927 672.559 396.699C672.154 396.468 671.835 396.121 671.604 395.658C671.372 395.191 671.257 394.603 671.257 393.894V388.599H672.537V393.808C672.537 394.415 672.707 394.9 673.047 395.262C673.391 395.623 673.828 395.804 674.36 395.804C674.678 395.804 675.002 395.723 675.331 395.56C675.664 395.397 675.942 395.148 676.167 394.811C676.394 394.475 676.508 394.046 676.508 393.525ZM681.414 391.919V396.933H680.134V388.599H681.371V389.901H681.48C681.675 389.478 681.971 389.138 682.369 388.881C682.767 388.621 683.281 388.491 683.91 388.491C684.474 388.491 684.968 388.606 685.391 388.838C685.815 389.066 686.144 389.413 686.379 389.879C686.614 390.342 686.731 390.928 686.731 391.637V396.933H685.451V391.724C685.451 391.069 685.281 390.559 684.941 390.194C684.601 389.825 684.134 389.641 683.541 389.641C683.133 389.641 682.767 389.729 682.445 389.907C682.127 390.084 681.876 390.342 681.691 390.682C681.507 391.022 681.414 391.435 681.414 391.919Z" fill="#8A92A6"/>
<path d="M820.434 385.821H821.779V393.764C821.779 394.473 821.649 395.075 821.388 395.571C821.128 396.066 820.761 396.443 820.287 396.699C819.813 396.956 819.254 397.085 818.611 397.085C818.003 397.085 817.462 396.974 816.988 396.754C816.515 396.529 816.142 396.211 815.871 395.799C815.599 395.386 815.464 394.896 815.464 394.328H816.788C816.788 394.643 816.865 394.918 817.021 395.153C817.18 395.385 817.397 395.565 817.672 395.696C817.947 395.826 818.26 395.891 818.611 395.891C818.998 395.891 819.327 395.81 819.598 395.647C819.869 395.484 820.076 395.245 820.217 394.931C820.361 394.612 820.434 394.223 820.434 393.764V385.821ZM829.554 393.525V388.599H830.834V396.933H829.554V395.522H829.467C829.272 395.945 828.968 396.305 828.556 396.602C828.143 396.895 827.622 397.041 826.993 397.041C826.472 397.041 826.009 396.927 825.604 396.699C825.199 396.468 824.881 396.121 824.649 395.658C824.418 395.191 824.302 394.603 824.302 393.894V388.599H825.582V393.808C825.582 394.415 825.752 394.9 826.092 395.262C826.436 395.623 826.874 395.804 827.405 395.804C827.724 395.804 828.047 395.723 828.377 395.56C828.709 395.397 828.988 395.148 829.212 394.811C829.44 394.475 829.554 394.046 829.554 393.525ZM834.46 385.821V396.933H833.179V385.821H834.46Z" fill="#8A92A6"/>
<path d="M963.681 396.933H962.271L966.35 385.821H967.739L971.819 396.933H970.409L967.088 387.579H967.002L963.681 396.933ZM964.202 392.592H969.888V393.786H964.202V392.592ZM978.628 393.525V388.599H979.909V396.933H978.628V395.522H978.542C978.346 395.945 978.042 396.305 977.63 396.602C977.218 396.895 976.697 397.041 976.068 397.041C975.547 397.041 975.084 396.927 974.679 396.699C974.274 396.468 973.955 396.121 973.724 395.658C973.492 395.191 973.377 394.603 973.377 393.894V388.599H974.657V393.808C974.657 394.415 974.827 394.9 975.167 395.262C975.511 395.623 975.948 395.804 976.48 395.804C976.798 395.804 977.122 395.723 977.451 395.56C977.784 395.397 978.062 395.148 978.287 394.811C978.514 394.475 978.628 394.046 978.628 393.525ZM985.618 400.231C984.999 400.231 984.468 400.152 984.023 399.993C983.578 399.837 983.207 399.631 982.91 399.374C982.617 399.121 982.384 398.85 982.211 398.56L983.231 397.844C983.346 397.996 983.493 398.17 983.67 398.365C983.847 398.564 984.09 398.736 984.397 398.88C984.708 399.029 985.115 399.103 985.618 399.103C986.291 399.103 986.846 398.94 987.283 398.615C987.721 398.289 987.94 397.779 987.94 397.085V395.392H987.831C987.737 395.544 987.604 395.732 987.43 395.956C987.26 396.177 987.014 396.374 986.692 396.547C986.374 396.717 985.943 396.802 985.401 396.802C984.728 396.802 984.124 396.643 983.589 396.325C983.057 396.007 982.636 395.544 982.325 394.936C982.017 394.328 981.863 393.591 981.863 392.722C981.863 391.869 982.013 391.126 982.314 390.493C982.614 389.856 983.032 389.364 983.567 389.017C984.102 388.666 984.721 388.491 985.422 388.491C985.965 388.491 986.395 388.581 986.714 388.762C987.036 388.939 987.282 389.142 987.452 389.369C987.625 389.594 987.759 389.778 987.853 389.923H987.983V388.599H989.22V397.171C989.22 397.888 989.058 398.47 988.732 398.918C988.41 399.37 987.976 399.701 987.43 399.911C986.887 400.125 986.283 400.231 985.618 400.231ZM985.574 395.652C986.088 395.652 986.522 395.535 986.876 395.3C987.231 395.064 987.5 394.726 987.685 394.285C987.869 393.844 987.962 393.316 987.962 392.701C987.962 392.1 987.871 391.57 987.69 391.111C987.509 390.652 987.242 390.292 986.887 390.031C986.533 389.771 986.095 389.641 985.574 389.641C985.032 389.641 984.58 389.778 984.218 390.053C983.86 390.328 983.59 390.697 983.41 391.16C983.232 391.623 983.144 392.136 983.144 392.701C983.144 393.279 983.234 393.791 983.415 394.236C983.599 394.677 983.871 395.025 984.229 395.278C984.591 395.527 985.039 395.652 985.574 395.652Z" fill="#8A92A6"/>
<path d="M323.236 196.725L267.693 250.762C243.204 274.586 206.313 280.284 175.778 264.958L127.066 240.507C111.217 232.552 94.1585 227.28 76.585 224.905L67.7969 223.718V355.97H973.985V203.665L971.565 204.006C953.07 206.606 935.452 213.546 920.152 224.256L874.311 256.344C843.56 277.87 803.237 280.016 770.376 261.874L712.073 229.688C687.519 216.133 657.782 215.883 633.003 229.023L565.728 264.699C535.473 280.743 498.37 275.81 473.359 252.418L412.868 195.843C387.547 172.16 348.087 172.549 323.236 196.725Z" fill="url(#paint0_linear_141_5010)" fill-opacity="0.2"/>
<path d="M67.7969 126.32L73.264 127.059C93.0005 129.726 112.068 136.045 129.491 145.692L173.874 170.268C201.853 185.76 235.73 186.217 264.117 171.485L330.188 137.195C354.907 124.366 384.279 124.163 409.173 136.649L481.525 172.938C506.865 185.648 536.75 185.496 561.959 172.529L633.471 135.744C657.216 123.531 685.384 123.475 709.177 135.594L778.014 170.658C806.847 185.345 841.06 184.91 869.51 169.495L925.826 138.981C937.79 132.498 950.761 127.871 964.324 126.778C967.724 126.503 971.084 126.32 973.985 126.32" stroke="#3A57E8" stroke-width="1.90977"/>
<path d="M67.7969 225.628L76.585 226.816C94.1585 229.19 111.217 234.463 127.066 242.418L175.778 266.868C206.313 282.194 243.204 276.497 267.693 252.673L323.236 198.635C348.087 174.459 387.547 174.07 412.868 197.753L473.359 254.328C498.37 277.72 535.473 282.654 565.728 266.61L633.003 230.934C657.782 217.793 687.519 218.043 712.073 231.599L770.376 263.784C803.237 281.926 843.56 279.78 874.311 258.254L920.152 226.166C935.452 215.456 953.07 208.517 971.564 205.916L973.985 205.575" stroke="#369BFF" stroke-width="1.90977"/>
<path d="M330.188 137.195L264.117 171.485C235.73 186.217 201.853 185.76 173.874 170.268L129.491 145.692C112.068 136.045 93.0005 129.726 73.264 127.059L67.7969 126.32V356.448H973.985V126.32L967.898 126.899C952.066 128.407 936.699 133.089 922.716 140.666L869.51 169.495C841.06 184.91 806.847 185.345 778.014 170.658L709.177 135.594C685.384 123.475 657.216 123.531 633.471 135.744L561.959 172.529C536.75 185.496 506.865 185.648 481.525 172.938L409.173 136.649C384.279 124.163 354.907 124.366 330.188 137.195Z" fill="url(#paint1_linear_141_5010)" fill-opacity="0.2"/>
<defs>
<linearGradient id="paint0_linear_141_5010" x1="520.413" y1="166.902" x2="520.413" y2="308.703" gradientUnits="userSpaceOnUse">
<stop stop-color="#85C5FA"/>
<stop offset="0.385417" stop-color="#85D9FA" stop-opacity="0.586835"/>
<stop offset="0.93284" stop-color="#85F4FA" stop-opacity="0"/>
</linearGradient>
<linearGradient id="paint1_linear_141_5010" x1="520.891" y1="116.293" x2="520.413" y2="207.485" gradientUnits="userSpaceOnUse">
<stop stop-color="#3A57E8"/>
<stop offset="1" stop-color="#3A57E8" stop-opacity="0"/>
</linearGradient>
</defs>
</svg>
